<?xml version="1.0" encoding="UTF-8"?>
<svg version="1.1" xmlns="http://www.w3.org/2000/svg" width="740" height="50">
<path d="M0 0 C231.33 0 462.66 0 701 0 C701 0.99 701 1.98 701 3 C702.32 3 703.64 3 705 3 C705 4.32 705 5.64 705 7 C706.32 7 707.64 7 709 7 C709 18.88 709 30.76 709 43 C707.35 43 705.7 43 704 43 C704 44.32 704 45.64 704 47 C702.68 47 701.36 47 700 47 C700 47.99 700 48.98 700 50 C469 50 238 50 0 50 C0 49.01 0 48.02 0 47 C-1.32 47 -2.64 47 -4 47 C-4 45.68 -4 44.36 -4 43 C-5.32 43 -6.64 43 -8 43 C-8 31.12 -8 19.24 -8 7 C-6.68 7 -5.36 7 -4 7 C-4 5.68 -4 4.36 -4 3 C-2.68 3 -1.36 3 0 3 C0 2.01 0 1.02 0 0 Z M4 7 C4 8.32 4 9.64 4 11 C2.68 11 1.36 11 0 11 C0 20.24 0 29.48 0 39 C1.32 39 2.64 39 4 39 C4 40.32 4 41.64 4 43 C232.36 43 460.72 43 696 43 C696 41.68 696 40.36 696 39 C697.65 39 699.3 39 701 39 C701 29.76 701 20.52 701 11 C699.68 11 698.36 11 697 11 C697 9.68 697 8.36 697 7 C468.31 7 239.62 7 4 7 Z " fill="#B2B2B2" transform="translate(13,0)"/>
<path d="M0 0 C231.33 0 462.66 0 701 0 C701 0.99 701 1.98 701 3 C469.67 3 238.34 3 0 3 C0 2.01 0 1.02 0 0 Z " fill="#000000" transform="translate(13,0)"/>
<path d="M0 0 C231 0 462 0 700 0 C700 0.99 700 1.98 700 3 C469 3 238 3 0 3 C0 2.01 0 1.02 0 0 Z " fill="#000000" transform="translate(13,47)"/>
<path d="M0 0 C1.32 0 2.64 0 4 0 C4 11.88 4 23.76 4 36 C2.68 36 1.36 36 0 36 C0 24.12 0 12.24 0 0 Z " fill="#000000" transform="translate(718,7)"/>
<path d="M0 0 C1.32 0 2.64 0 4 0 C4 11.88 4 23.76 4 36 C2.68 36 1.36 36 0 36 C0 24.12 0 12.24 0 0 Z " fill="#000000" transform="translate(5,7)"/>
</svg>
