<?xml version="1.0" encoding="UTF-8"?>
<svg version="1.1" xmlns="http://www.w3.org/2000/svg" width="716" height="50">
<defs>
    <linearGradient id="bg-gradient" x1="0" y1="0" x2="716" y2="0" gradientUnits="userSpaceOnUse">
        <stop offset="0%" stop-color="#00132D"/>
        <stop offset="100%" stop-color="#02498A"/>
    </linearGradient>
</defs>
<path d="M0 0 C236.28 0 472.56 0 716 0 C716 16.5 716 33 716 50 C479.72 50 243.44 50 0 50 C0 33.5 0 17 0 0 Z " fill="url(#bg-gradient)" transform="translate(0,0)"/>
<path d="M0 0 C236.28 0 472.56 0 716 0 C716 16.5 716 33 716 50 C479.72 50 243.44 50 0 50 C0 33.5 0 17 0 0 Z M11 7 C11 8.32 11 9.64 11 11 C9.68 11 8.36 11 7 11 C7 20.24 7 29.48 7 39 C8.32 39 9.64 39 11 39 C11 40.32 11 41.64 11 43 C239.36 43 467.72 43 703 43 C703 41.68 703 40.36 703 39 C704.65 39 706.3 39 708 39 C708 29.76 708 20.52 708 11 C706.68 11 705.36 11 704 11 C704 9.68 704 8.36 704 7 C475.31 7 246.62 7 11 7 Z " fill="#B4B4B4" transform="translate(0,0)"/>
<path d="M0 0 C236.28 0 472.56 0 716 0 C716 16.5 716 33 716 50 C479.72 50 243.44 50 0 50 C0 33.5 0 17 0 0 Z M7 3 C7 4.32 7 5.64 7 7 C5.68 7 4.36 7 3 7 C3 18.88 3 30.76 3 43 C4.32 43 5.64 43 7 43 C7 44.32 7 45.64 7 47 C238 47 469 47 707 47 C707 45.68 707 44.36 707 43 C708.65 43 710.3 43 712 43 C712 31.12 712 19.24 712 7 C710.68 7 709.36 7 708 7 C708 5.68 708 4.36 708 3 C476.67 3 245.34 3 7 3 Z " fill="#000000" transform="translate(0,0)"/>
</svg>
